<?xml version="1.0" encoding="utf-8"?>
<!-- Generator: Adobe Illustrator 16.0.0, SVG Export Plug-In . SVG Version: 6.00 Build 0)  -->
<!DOCTYPE svg PUBLIC "-//W3C//DTD SVG 1.1//EN" "http://www.w3.org/Graphics/SVG/1.1/DTD/svg11.dtd">
<svg version="1.1" id="Layer_1" xmlns="http://www.w3.org/2000/svg" xmlns:xlink="http://www.w3.org/1999/xlink" x="0px" y="0px"
	 width="400px" height="410px" viewBox="0 0 400 410" enable-background="new 0 0 400 410" xml:space="preserve">
<path fill="#212120" d="M146.395,304.644c0,0-57.082-21.895-90.97-22.938c0,0-24.5-1.564-19.026,27.366
	c0,0,2.933,15.51,41.705,33.365c0,0,12.838,5.408,21.373,8.86c0,0-7.167,26.457,1.825,38.97c0,0,7.706,5.676,17.595-3.521
	c0,0,6.861-6.555,20.33-9.774c0,0,25.504-5.691,47.008-6.865c0,0,23.272,1.086,62.075,8.076c0,0,15.197,2.26,30.278,5.52
	c0,0,13.169,2.74,21.722,5.781c0,0,11.031,4.792,17.985,0.783c0,0,8.604-5.084-1.018-37.011c0,0,15.483-9.518,34.771-25.157
	c0,0,12.771-10.164,10.688-22.938c0,0-1.304-21.895-28.149-19.029c0,0-26.457,3.261-63.861,19.027
	C270.727,305.161,221.465,327.056,146.395,304.644z"/>
<path fill="#212120" d="M155.777,63.014c0,0-13.293,32.842,13.554,57.344c0,0,0.522,13.033-13.294,25.805
	c0,0,10.688,26.848,37.273,27.109c0,0,34.146-9.645,37.014-44.832c0,0-14.336-8.082-17.985-18.248c0,0,11.209-39.357-15.117-59.949
	C197.222,50.242,170.896,34.604,155.777,63.014z"/>
<path fill="#212120" d="M141.865,140.935l-12.119,1.955c0,0-10.948,0.979-16.031,18.768c0,0-5.865,18.768-10.165,35.972
	c0,0,14.856,10.946,42.616,16.419c0,0,17.203,35.189,13.685,64.902l91.882,5.475c0,0-4.822-39.098-2.478-55.91
	c0,0,0.521-5.213,3.129-10.034c0,0,3.128-5.084,3.258-13.685l1.656,2.392c0,0,25.321-22.07,28.841-39.273
	c0,0-9.775-14.076-25.023-29.715c0,0-12.512-14.076-22.285-13.686l-10.557,0.393c0,0-0.781,21.504-26.588,31.277
	C201.686,156.183,168.451,168.694,141.865,140.935z"/>
<path fill="#212120" d="M281.674,174.055c17.465,34.209,24.502,56.301,24.502,56.301c2.605,7.037-1.043,10.686-1.043,10.686
	c-17.072,23.98-54.477,58.648-54.477,58.648l-4.17-31.279l17.724-21.895c4.171-4.691,9.905-15.379,9.905-15.379
	c1.562-3.91,0.392-5.476,0.392-5.476c-10.817-15.118-16.422-21.895-16.422-21.895L281.674,174.055z"/>
<path fill="#212120" d="M143.007,211.323c-7.821,20.857-14.988,40.01-14.988,40.01c-0.78,1.57,2.216,5.605,2.216,5.605
	c4.432,5.217,25.805,25.285,25.805,25.285l-7.43,20.332c-26.718-14.855-46.526-35.447-46.526-35.447
	c-4.691-3.91-3.128-10.949-3.128-10.949c3.648-32.318,11.207-57.604,11.207-57.604L143.007,211.323z"/>
<path d="M242.822,188.563"/>
<g opacity="0.8" enable-background="new    ">
	<g>
		<defs>
			<rect id="SVGID_1_" x="171.044" y="128.57" width="42.557" height="16.869"/>
		</defs>
		<clipPath id="SVGID_2_">
			<use xlink:href="#SVGID_1_"  overflow="visible"/>
		</clipPath>
		<path clip-path="url(#SVGID_2_)" fill="#FFE7CB" d="M193.009,140.981c-1.114-2.338,0.032-5.105,2.562-6.184
			c2.526-1.076,5.479-0.053,6.594,2.285c1.115,2.338-0.032,5.107-2.561,6.182C197.074,144.342,194.122,143.319,193.009,140.981"/>
	</g>
	<g>
		<defs>
			<rect id="SVGID_3_" x="171.044" y="128.57" width="42.557" height="16.869"/>
		</defs>
		<clipPath id="SVGID_4_">
			<use xlink:href="#SVGID_3_"  overflow="visible"/>
		</clipPath>
		<path clip-path="url(#SVGID_4_)" fill="#FFECC7" d="M194.062,140.531c-0.857-1.799,0.026-3.93,1.971-4.758
			c1.947-0.828,4.22-0.041,5.076,1.758s-0.023,3.93-1.97,4.758C197.191,143.117,194.92,142.33,194.062,140.531"/>
	</g>
	<g>
		<defs>
			<rect id="SVGID_5_" x="171.044" y="128.57" width="42.557" height="16.869"/>
		</defs>
		<clipPath id="SVGID_6_">
			<use xlink:href="#SVGID_5_"  overflow="visible"/>
		</clipPath>
		<path clip-path="url(#SVGID_6_)" fill="#FFF7EA" d="M199.271,139.613c0.5,1.051-0.015,2.295-1.152,2.779
			c-1.137,0.484-2.463,0.023-2.965-1.027c-0.502-1.051,0.016-2.295,1.151-2.779C197.445,138.103,198.771,138.562,199.271,139.613"/>
	</g>
	<g>
		<defs>
			<rect id="SVGID_7_" x="171.044" y="128.57" width="42.557" height="16.869"/>
		</defs>
		<clipPath id="SVGID_8_">
			<use xlink:href="#SVGID_7_"  overflow="visible"/>
		</clipPath>
		<path clip-path="url(#SVGID_8_)" fill="#FFE7CB" d="M182.261,142.728c-1.114-2.338,0.034-5.105,2.562-6.182
			c2.528-1.076,5.481-0.053,6.595,2.285c1.114,2.336-0.033,5.105-2.562,6.18C186.328,146.088,183.375,145.065,182.261,142.728"/>
	</g>
	<g>
		<defs>
			<rect id="SVGID_9_" x="171.044" y="128.57" width="42.557" height="16.869"/>
		</defs>
		<clipPath id="SVGID_10_">
			<use xlink:href="#SVGID_9_"  overflow="visible"/>
		</clipPath>
		<path clip-path="url(#SVGID_10_)" fill="#FFECC7" d="M183.316,142.277c-0.857-1.799,0.025-3.93,1.971-4.756
			c1.945-0.828,4.219-0.043,5.076,1.756c0.856,1.801-0.025,3.93-1.972,4.76C186.445,144.865,184.174,144.078,183.316,142.277"/>
	</g>
	<g>
		<defs>
			<rect id="SVGID_11_" x="171.044" y="128.57" width="42.557" height="16.869"/>
		</defs>
		<clipPath id="SVGID_12_">
			<use xlink:href="#SVGID_11_"  overflow="visible"/>
		</clipPath>
		<path clip-path="url(#SVGID_12_)" fill="#FFF7EA" d="M188.525,141.36c0.5,1.053-0.016,2.297-1.151,2.781
			c-1.138,0.484-2.466,0.022-2.966-1.027c-0.502-1.053,0.013-2.297,1.15-2.781C186.697,139.848,188.023,140.31,188.525,141.36"/>
	</g>
	<g>
		<defs>
			<rect id="SVGID_13_" x="171.044" y="128.57" width="42.557" height="16.869"/>
		</defs>
		<clipPath id="SVGID_14_">
			<use xlink:href="#SVGID_13_"  overflow="visible"/>
		</clipPath>
		<path clip-path="url(#SVGID_14_)" fill="#FFE7CB" d="M171.744,141.66c-1.422-2.184-0.655-5.059,1.714-6.42
			c2.368-1.361,5.44-0.693,6.864,1.49c1.422,2.186,0.654,5.059-1.715,6.42C176.24,144.512,173.166,143.846,171.744,141.66"/>
	</g>
	<g>
		<defs>
			<rect id="SVGID_15_" x="171.044" y="128.57" width="42.557" height="16.869"/>
		</defs>
		<clipPath id="SVGID_16_">
			<use xlink:href="#SVGID_15_"  overflow="visible"/>
		</clipPath>
		<path clip-path="url(#SVGID_16_)" fill="#FFECC7" d="M172.732,141.092c-1.094-1.68-0.504-3.893,1.318-4.941
			c1.824-1.047,4.189-0.531,5.282,1.15c1.095,1.68,0.505,3.891-1.318,4.939C176.193,143.287,173.826,142.774,172.732,141.092"/>
	</g>
	<g>
		<defs>
			<rect id="SVGID_17_" x="171.044" y="128.57" width="42.557" height="16.869"/>
		</defs>
		<clipPath id="SVGID_18_">
			<use xlink:href="#SVGID_17_"  overflow="visible"/>
		</clipPath>
		<path clip-path="url(#SVGID_18_)" fill="#FFF7EA" d="M177.787,139.574c0.64,0.982,0.294,2.275-0.771,2.889
			c-1.063,0.611-2.446,0.311-3.086-0.672c-0.64-0.982-0.295-2.275,0.769-2.889C175.766,138.292,177.148,138.592,177.787,139.574"/>
	</g>
	<g>
		<defs>
			<rect id="SVGID_19_" x="171.044" y="128.57" width="42.557" height="16.869"/>
		</defs>
		<clipPath id="SVGID_20_">
			<use xlink:href="#SVGID_19_"  overflow="visible"/>
		</clipPath>
		<path clip-path="url(#SVGID_20_)" fill="#FFE7CB" d="M202.601,135.81c-1.114-2.338,0.031-5.105,2.562-6.182
			c2.525-1.076,5.479-0.055,6.595,2.285c1.114,2.338-0.033,5.105-2.562,6.182C206.666,139.17,203.715,138.147,202.601,135.81"/>
	</g>
	<g>
		<defs>
			<rect id="SVGID_21_" x="171.044" y="128.57" width="42.557" height="16.869"/>
		</defs>
		<clipPath id="SVGID_22_">
			<use xlink:href="#SVGID_21_"  overflow="visible"/>
		</clipPath>
		<path clip-path="url(#SVGID_22_)" fill="#FFECC7" d="M203.654,135.36c-0.856-1.799,0.025-3.928,1.971-4.758
			c1.945-0.826,4.219-0.039,5.074,1.76c0.856,1.799-0.023,3.93-1.971,4.758C206.781,137.948,204.512,137.158,203.654,135.36"/>
	</g>
	<g>
		<defs>
			<rect id="SVGID_23_" x="171.044" y="128.57" width="42.557" height="16.869"/>
		</defs>
		<clipPath id="SVGID_24_">
			<use xlink:href="#SVGID_23_"  overflow="visible"/>
		</clipPath>
		<path clip-path="url(#SVGID_24_)" fill="#FFF7EA" d="M208.861,134.442c0.502,1.053-0.014,2.297-1.149,2.779
			c-1.14,0.484-2.465,0.025-2.966-1.025c-0.502-1.053,0.014-2.297,1.15-2.781C207.035,132.933,208.361,133.392,208.861,134.442"/>
	</g>
</g>
<path fill="#A6A6A6" d="M137.932,336.226l-5.256-63.217c-0.021-3.857,0.37-5.422,4.984-5.892l120.744-10.041
	c6.207-0.045,6.599,0.933,7.414,6.479l3.478,67.904l0.198,5.382L139.64,347.723L137.932,336.226z"/>
<path fill="#A27994" d="M159.55,252.571c0,0,6.265-4.883,9.052-21.801c0,0,10.534,4.811,11.572,14.891c0,0,0.057,1.996,0.473-0.131
	c0,0,2.37-14.719-4.179-23.678c0,0,11.565,5.117,17.041,16.129c0,0,1.142,2.215,0.13,3.648c0,0-0.24,0.356-0.225,0.748
	c0,0,0.029,0.344,0.208,0.131c0,0,0.829-0.863,0.634-4.334c0,0,0.294-10.361-14.146-34.669c0,0,11.389-25.946-10.125-56.039
	c0,0,5.344-12.252,2.215-26.066c0,0-13.945-9.383-16.953-31.436c0,0,14.199-2.447,29.578-27.342c0,0,0.668-1.174,1.955-2.395
	c0,0,0.016,11.908-11.323,21.162c0,0-0.993,0.684-1.679,0.977c0,0,11.323-2.02,19.272-15.703c0,0,2.575-4.334,3.748-9.025
	c0,0,2.248,3.91,0.815,8.635c0,0,2.509-4.236,2.148-11.664c0,0,16.682,36.85,8.732,55.91c0,0-1.729,3.273-4.432,6.289
	c0,0,4.43,21.014,20.004,21.275c0,0,14.662-0.652,19.899-14.793c0,0-13.252,0.455-19.508-7.818c0,0-5.864-7.887-1.224-20.445
	c0,0,4.22-13.246-2.164-24.975c0,0-6.647-9.906-7.561-21.504c0,0,0.292-14.467-11.209-22.678c0,0-13.424-8.211-26.326-1.562
	c0,0-30.496-6.258-41.443,17.201c0,0-13.099,22.971-5.707,75.223c0,0-8.107,18.484-0.745,40.9c0,0,5.767,15.053,1.173,27.564
	c0,0-9.773,22.677,5.083,28.542c0,0-2.957,24.695,13.524,22.953c0,0,3.824,8.553-0.037,10.996c0,0-1.14,0.781-2.605,0.385
	c0,0-1.598-0.482-0.393,0.465c0,0,1.547,1.162,4.345,0.992c0,0,3.708-0.168,6.095-2.582c0,0,1.197-1.336,0.822,0.332
	c0,0-2.125,6.916-7.167,7.166c0,0-3.5,0.291-6.542-1.168c0,0-1.75-1.082-0.833,0.168c0,0,2.334,3.082,8.667,2.957
	C150.216,256.403,155.008,256.446,159.55,252.571z"/>
<g>
	<path d="M166.275,275.719c-0.125-1.156-0.224-2.215-0.3-3.176c-0.04-0.498,0.188-0.765,0.686-0.805
		c0.498-0.039,0.766,0.189,0.805,0.688l0.094,1.193c1.07-1.219,2.344-1.986,3.819-2.303c1.837-0.377,3.717,0.007,5.642,1.154
		c1.816,1.058,3.237,2.588,4.262,4.589c1.025,2.004,1.303,4.057,0.835,6.161c-0.312,1.523-1.094,2.828-2.341,3.909
		c-1.248,1.083-2.659,1.802-4.229,2.159c-2.59,0.571-4.728,0.09-6.415-1.444c0.202,2.151,0.365,4.097,0.486,5.837
		c0.12,1.741,0.281,3.678,0.482,5.813c0.202,2.134,0.422,4.075,0.66,5.823c0.016,0.199-0.036,0.387-0.156,0.562
		c-0.119,0.177-0.278,0.272-0.477,0.288c-0.199,0.016-0.385-0.035-0.563-0.156c-0.176-0.119-0.271-0.277-0.288-0.477
		c-0.379-2.703-0.74-6.316-1.081-10.84c-0.339-4.524-0.651-8.143-0.931-10.853c-0.106-0.925-0.271-2.271-0.494-4.037
		c-0.222-1.766-0.381-3.044-0.477-3.837L166.275,275.719z M168.904,284.963l0.116,0.191c0.526,1.191,1.357,2.01,2.494,2.453
		c1.135,0.445,2.373,0.513,3.716,0.207c1.345-0.272,2.524-0.857,3.537-1.754c1.012-0.897,1.656-1.939,1.928-3.128
		c0.361-1.763,0.099-3.499-0.786-5.214c-0.886-1.713-2.116-3.041-3.69-3.984c-1.574-0.943-3.099-1.255-4.574-0.938
		c-1.576,0.323-2.862,1.357-3.856,3.103c0.093,0.76,0.251,2.015,0.472,3.765c0.222,1.748,0.387,3.103,0.497,4.06
		C168.788,284.121,168.837,284.535,168.904,284.963z"/>
	<path d="M195.279,287.815c1.029,1.187,1.21,2.438,0.547,3.758c-0.49,0.972-1.514,1.937-3.071,2.891
		c-2.065,1.298-4.546,2.377-7.445,3.239c0.913,1.861,2.328,3.101,4.243,3.715c1.541,0.512,3.006,0.372,4.393-0.422
		c1.387-0.791,2.344-2.292,2.87-4.501c0.018-0.2,0.112-0.358,0.288-0.473c0.173-0.114,0.363-0.153,0.564-0.119
		c0.203,0.034,0.361,0.138,0.475,0.312c0.114,0.175,0.145,0.347,0.092,0.517c-0.559,2.646-1.731,4.471-3.519,5.48
		c-1.787,1.006-3.673,1.195-5.655,0.569c-1.983-0.626-3.559-1.894-4.726-3.802s-1.566-4.11-1.196-6.605
		c0.241-1.587,0.822-3,1.741-4.238c0.918-1.24,2.025-2.11,3.319-2.613c1.287-0.568,2.564-0.66,3.828-0.276
		C193.291,285.63,194.377,286.487,195.279,287.815z M194.492,289.227c-0.071-0.06-0.145-0.138-0.219-0.231
		c-0.041-0.097-0.1-0.208-0.177-0.336l-0.053-0.047c-0.073-0.06-0.11-0.124-0.116-0.19c-0.716-1.043-1.551-1.693-2.504-1.952
		s-1.849-0.187-2.684,0.213c-0.998,0.445-1.879,1.206-2.644,2.282c-0.766,1.078-1.252,2.316-1.458,3.715
		c-0.206,1.4-0.143,2.72,0.188,3.961c2.77-0.818,5.154-1.873,7.151-3.164c1.301-0.834,2.137-1.651,2.508-2.448
		C194.801,290.404,194.803,289.803,194.492,289.227z"/>
	<path d="M202.35,286.158c3.069-1.676,5.535-2.305,7.402-1.885c1.697,0.4,2.88,1.641,3.544,3.722
		c0.573,1.788,0.822,4.718,0.744,8.791c0.185,0.22,0.235,0.466,0.157,0.737l-0.167,0.414c-0.042,1.17-0.056,2.039-0.045,2.604
		c0.016,0.199-0.053,0.371-0.209,0.516c-0.155,0.146-0.333,0.228-0.531,0.242c-0.198,0.018-0.372-0.053-0.517-0.208
		c-0.146-0.155-0.226-0.333-0.242-0.531c-0.016-0.199-0.016-0.399,0.004-0.602c-0.908,0.772-1.995,1.333-3.268,1.684
		c-1.271,0.351-2.515,0.456-3.726,0.319c-1.944-0.146-3.413-0.797-4.405-1.953c-1.202-1.305-1.469-3-0.801-5.087
		c0.459-1.369,1.326-2.521,2.603-3.455c1.278-0.935,2.686-1.563,4.228-1.884c1.54-0.322,2.895-0.279,4.061,0.129
		c0.411,0.135,0.775,0.322,1.094,0.564c-0.088-0.693-0.219-1.299-0.393-1.82c-0.488-1.527-1.309-2.43-2.463-2.705
		c-1.495-0.349-3.616,0.236-6.363,1.752c-0.449,0.235-0.791,0.129-1.025-0.319C201.796,286.736,201.901,286.393,202.35,286.158z
		 M212.27,292.727c-0.162-0.787-0.689-1.329-1.578-1.627c-0.924-0.293-2.025-0.307-3.305-0.039c-1.312,0.271-2.496,0.797-3.55,1.58
		c-1.056,0.783-1.757,1.707-2.106,2.767c-0.481,1.505-0.322,2.71,0.484,3.612c0.733,0.842,1.872,1.336,3.417,1.48
		c1.409,0.122,2.775-0.085,4.101-0.623c1.324-0.537,2.248-1.295,2.771-2.27c0.041-2.035,0.057-3.521,0.051-4.453
		C212.409,293.031,212.315,292.89,212.27,292.727z"/>
	<path d="M218.103,289.365c0.142,1.355,0.274,3.254,0.399,5.694s0.221,4.058,0.284,4.853c0.039,0.498-0.189,0.766-0.687,0.805
		c-0.498,0.039-0.765-0.189-0.805-0.688c-0.07-0.895-0.158-2.545-0.266-4.954c-0.107-2.407-0.259-4.437-0.455-6.089
		c-0.198-1.652-0.488-3.213-0.87-4.683c-0.052-0.228-0.026-0.431,0.077-0.605s0.26-0.288,0.475-0.338
		c0.211-0.05,0.404-0.022,0.58,0.079c0.174,0.104,0.287,0.252,0.336,0.448c0.141,0.523,0.267,1.062,0.377,1.621
		c0.891-1.403,2.092-2.232,3.605-2.485c1.412-0.244,2.589,0.096,3.53,1.022c1.013,1.021,1.466,2.534,1.358,4.544
		c-0.016,0.201-0.104,0.375-0.26,0.52c-0.154,0.146-0.332,0.21-0.533,0.191c-0.202-0.017-0.376-0.102-0.521-0.258
		c-0.146-0.155-0.209-0.334-0.191-0.535c0.075-1.573-0.23-2.698-0.918-3.379c-0.58-0.586-1.312-0.795-2.199-0.625
		c-0.956,0.141-1.773,0.656-2.453,1.541c-0.68,0.889-0.969,1.979-0.867,3.271L218.103,289.365z"/>
	<path d="M228.412,272.357c-0.016,1.075-0.004,1.861,0.035,2.355c0.039,0.495,0.135,1.293,0.289,2.392
		c0.154,1.102,0.256,1.956,0.303,2.563l1.515,19.203c0.045,0.572-0.181,0.878-0.679,0.918c-0.496,0.037-0.767-0.229-0.812-0.8
		l-1.515-19.204c-0.036-0.455-0.133-1.254-0.289-2.392c-0.157-1.138-0.257-1.993-0.302-2.562c-0.045-0.571-0.064-1.433-0.055-2.584
		c0.016-0.231,0.099-0.43,0.254-0.595c0.152-0.165,0.332-0.235,0.533-0.215c0.201,0.022,0.377,0.123,0.523,0.303
		C228.36,271.922,228.426,272.127,228.412,272.357z"/>
</g>
<g>
	<path d="M164.996,319.646c1.51-0.119,3.785-0.38,6.825-0.788c3.037-0.439,5.328-0.719,6.87-0.842
		c-0.078-0.995-0.169-1.938-0.271-2.828c-0.085-0.661-0.29-2.344-0.617-5.052s-0.547-4.791-0.664-6.25
		c-0.038-0.496,0.183-0.762,0.666-0.801c0.481-0.037,0.742,0.191,0.782,0.688c0.114,1.459,0.334,3.533,0.66,6.225
		c0.325,2.69,0.532,4.382,0.619,5.076c0.209,1.818,0.516,5.419,0.926,10.802c0.408,5.387,0.764,8.984,1.069,10.794
		c0.016,0.198-0.035,0.385-0.15,0.562c-0.116,0.175-0.269,0.269-0.462,0.285c-0.194,0.015-0.376-0.037-0.546-0.156
		c-0.172-0.119-0.265-0.28-0.28-0.479c-0.232-1.714-0.438-3.491-0.614-5.326c-0.178-1.837-0.362-4.063-0.552-6.683
		c-0.191-2.619-0.339-4.406-0.447-5.365c-1.51,0.119-3.77,0.382-6.778,0.784c-3.616,0.486-5.92,0.768-6.917,0.847l-0.096,0.008
		c0.104,0.926,0.22,2.29,0.348,4.096c0.125,1.81,0.233,3.267,0.32,4.377c0.088,1.11,0.217,2.44,0.388,3.995
		c0.171,1.553,0.34,2.973,0.505,4.261c0.017,0.199-0.034,0.385-0.149,0.561c-0.115,0.175-0.269,0.271-0.463,0.287
		c-0.192,0.015-0.375-0.038-0.545-0.158c-0.172-0.117-0.265-0.278-0.281-0.478c-0.375-2.704-0.732-6.317-1.072-10.84
		c-0.341-4.524-0.652-8.142-0.929-10.854c-0.085-0.659-0.291-2.343-0.617-5.052c-0.327-2.707-0.547-4.789-0.663-6.248
		c-0.039-0.497,0.182-0.764,0.665-0.802s0.743,0.19,0.781,0.688c0.116,1.459,0.335,3.534,0.662,6.224
		c0.325,2.691,0.531,4.383,0.619,5.076c0.112,1.025,0.218,2.15,0.314,3.375L164.996,319.646z"/>
	<path d="M185.667,320.074c3.068-1.676,5.536-2.303,7.401-1.883c1.699,0.398,2.881,1.64,3.545,3.72
		c0.574,1.788,0.822,4.721,0.743,8.793c0.185,0.218,0.237,0.464,0.159,0.738l-0.168,0.412c-0.042,1.171-0.056,2.038-0.045,2.604
		c0.017,0.199-0.054,0.372-0.209,0.516c-0.155,0.146-0.332,0.227-0.531,0.242c-0.199,0.017-0.371-0.054-0.516-0.209
		c-0.146-0.155-0.228-0.333-0.243-0.53c-0.015-0.198-0.015-0.398,0.003-0.601c-0.906,0.771-1.995,1.333-3.268,1.682
		c-1.271,0.352-2.514,0.457-3.725,0.32c-1.946-0.146-3.414-0.797-4.404-1.952c-1.203-1.306-1.471-3.002-0.802-5.087
		c0.458-1.369,1.327-2.521,2.602-3.457c1.277-0.934,2.686-1.562,4.227-1.884c1.541-0.32,2.895-0.279,4.061,0.13
		c0.412,0.136,0.775,0.323,1.094,0.563c-0.087-0.692-0.219-1.3-0.393-1.817c-0.488-1.529-1.309-2.432-2.463-2.708
		c-1.496-0.348-3.616,0.235-6.363,1.752c-0.449,0.236-0.789,0.13-1.025-0.319C185.113,320.652,185.219,320.311,185.667,320.074z
		 M195.586,326.644c-0.162-0.787-0.689-1.329-1.578-1.627c-0.924-0.294-2.024-0.307-3.304-0.039
		c-1.312,0.271-2.495,0.798-3.55,1.581c-1.056,0.783-1.758,1.706-2.108,2.765c-0.48,1.507-0.319,2.711,0.487,3.614
		c0.732,0.842,1.872,1.335,3.417,1.479c1.41,0.122,2.775-0.086,4.102-0.623c1.323-0.537,2.248-1.294,2.771-2.27
		c0.04-2.037,0.056-3.521,0.048-4.454C195.727,326.948,195.631,326.806,195.586,326.644z"/>
	<path d="M210.34,320.483c-0.699-1.245-1.553-2.027-2.561-2.35c-1.01-0.321-2.029-0.257-3.061,0.191
		c-1.033,0.449-1.932,1.195-2.698,2.24c-0.769,1.043-1.2,2.219-1.296,3.525c-0.256,2.688,0.135,4.907,1.174,6.659
		c0.887,1.53,2.438,2.374,4.65,2.532c2.18,0.163,3.869-0.389,5.069-1.648c0.153-0.18,0.29-0.357,0.409-0.532
		c0.118-0.178,0.217-0.402,0.297-0.675l0.201-0.615c0.021-0.135,0.083-0.425,0.182-0.867l0.189-0.762
		c0.02-0.202,0.113-0.359,0.288-0.475c0.174-0.112,0.362-0.153,0.565-0.118c0.203,0.034,0.361,0.139,0.476,0.312
		c0.113,0.174,0.144,0.365,0.095,0.566c0.007,0.1-0.039,0.363-0.139,0.787c-0.1,0.425-0.176,0.729-0.227,0.919
		c-0.053,0.187-0.133,0.45-0.238,0.793c-0.105,0.342-0.248,0.652-0.427,0.933c-0.178,0.281-0.374,0.53-0.591,0.747
		c-0.738,0.79-1.667,1.364-2.79,1.72c-1.121,0.355-2.286,0.498-3.491,0.425c-1.208-0.104-2.335-0.433-3.378-0.983
		c-1.042-0.549-1.872-1.336-2.485-2.353c-1.158-2.009-1.607-4.523-1.347-7.544c0.146-1.545,0.675-2.954,1.593-4.226
		c0.916-1.274,2.019-2.193,3.308-2.763c1.388-0.576,2.765-0.644,4.134-0.201c1.368,0.441,2.516,1.46,3.441,3.053
		c0.232,0.416,0.133,0.749-0.297,0.999C210.957,321.026,210.607,320.928,210.34,320.483z"/>
	<path d="M216.058,306.934c0.028,3.297,0.295,7.512,0.798,12.643c0.037,0.475,0.094,0.981,0.171,1.526
		c0.401-0.397,0.91-0.732,1.521-1c0.412-0.288,0.851-0.636,1.32-1.038c0.814-0.651,1.506-1.503,2.072-2.558
		c0.566-1.054,0.814-2.017,0.748-2.892c-0.043-0.545,0.184-0.838,0.681-0.877c0.495-0.039,0.767,0.214,0.81,0.76
		c0.154,1.969-0.655,3.957-2.43,5.967c1.662-0.058,2.966,0.408,3.91,1.396c0.731,0.822,1.381,2.276,1.943,4.357
		c0.01,0.11,0.094,0.451,0.256,1.024c0.162,0.575,0.256,0.925,0.283,1.051c0.025,0.125,0.113,0.478,0.259,1.051
		c0.146,0.578,0.214,0.93,0.208,1.058c-0.008,0.129,0.039,0.501,0.138,1.117s0.121,0.999,0.066,1.149
		c0.017,0.219-0.053,0.407-0.206,0.566c-0.154,0.158-0.33,0.245-0.529,0.26c-0.198,0.018-0.371-0.061-0.52-0.233
		c-0.146-0.171-0.229-0.366-0.246-0.584c-0.021-1.134-0.414-3.14-1.174-6.014c-0.478-1.833-0.99-3.039-1.535-3.619
		c-0.692-0.752-1.783-1.05-3.271-0.897c-0.859,0.105-1.564,0.254-2.115,0.441l-0.76,0.502c0.002,0.035-0.169,0.178-0.516,0.424
		l-0.287,0.189c-0.063,0.041-0.109,0.081-0.141,0.12l-0.297,0.024c0.449,4.438,0.748,7.587,0.895,9.444
		c0.043,0.548-0.184,0.839-0.681,0.878c-0.497,0.04-0.767-0.214-0.81-0.761c-0.029-0.364-0.446-4.583-1.249-12.663
		c-0.508-5.163-0.778-9.435-0.811-12.806c0.015-0.221,0.093-0.412,0.229-0.568c0.138-0.157,0.307-0.234,0.507-0.232
		c0.2,0.004,0.372,0.08,0.519,0.234C215.96,306.527,216.041,306.715,216.058,306.934z"/>
	<path d="M241.442,316.675c-0.37-0.872-1.025-1.454-1.964-1.745c-0.939-0.292-1.981-0.27-3.12,0.07
		c-1.142,0.34-2.038,0.895-2.694,1.663s-0.912,1.631-0.771,2.586c0.133,0.856,0.937,1.311,2.407,1.36
		c0.436,0.031,1.202,0.022,2.298-0.031c1.026-0.082,1.742-0.088,2.149-0.02c1.855,0.288,3.46,1.193,4.813,2.721
		c0.401,0.436,0.65,1.057,0.748,1.866c0.096,0.809,0.062,1.438-0.102,1.884c-0.47,1.638-1.426,2.837-2.865,3.599
		c-1.441,0.766-3.017,1.098-4.723,0.999c-1.708-0.099-3.265-0.585-4.665-1.456c-1.402-0.874-2.346-2.04-2.826-3.504
		c-0.049-0.196-0.023-0.38,0.08-0.558c0.104-0.174,0.252-0.294,0.447-0.357c0.194-0.066,0.378-0.047,0.555,0.055
		c0.174,0.104,0.301,0.252,0.384,0.446c0.321,1.105,1.06,2.007,2.214,2.699c1.156,0.692,2.452,1.083,3.893,1.169
		s2.729-0.171,3.864-0.78c1.135-0.606,1.872-1.505,2.211-2.701c0.104-0.374,0.12-0.809,0.047-1.302
		c-0.072-0.496-0.198-0.852-0.382-1.07c-1.099-1.247-2.392-1.979-3.873-2.194c-0.34-0.075-0.957-0.075-1.853-0.003
		c-1.162,0.057-1.979,0.071-2.446,0.042c-2.307-0.085-3.594-0.966-3.859-2.646c-0.245-1.414,0.098-2.649,1.031-3.706
		c0.936-1.057,2.102-1.792,3.502-2.203c1.401-0.409,2.769-0.418,4.1-0.023c1.332,0.396,2.248,1.24,2.75,2.534
		c0.082,0.193,0.08,0.387-0.006,0.575c-0.083,0.19-0.214,0.327-0.392,0.407c-0.177,0.08-0.36,0.078-0.551-0.007
		C241.653,316.957,241.52,316.835,241.442,316.675z"/>
</g>
</svg>
