<?xml version="1.0" encoding="utf-8"?>
<!-- Generator: Adobe Illustrator 16.0.0, SVG Export Plug-In . SVG Version: 6.00 Build 0)  -->
<!DOCTYPE svg PUBLIC "-//W3C//DTD SVG 1.1//EN" "http://www.w3.org/Graphics/SVG/1.1/DTD/svg11.dtd">
<svg version="1.1" id="Layer_1" xmlns="http://www.w3.org/2000/svg" xmlns:xlink="http://www.w3.org/1999/xlink" x="0px" y="0px"
	 width="430px" height="150px" viewBox="0 0 430 150" enable-background="new 0 0 430 150" xml:space="preserve">
<g>
	<path fill="#A27994" d="M225.15,126.753c-6.493,4.028-17.096,3.993-23.562-0.079L4.256,2.403C-2.21-1.668-1.248-5.012,6.393-5.027
		l194.111-0.375c7.641-0.016,20.145-0.016,27.786-0.001l195.317,0.377c7.641,0.015,8.58,3.322,2.087,7.351L225.15,126.753z"/>
</g>
<rect x="-295" y="-140" fill="none" width="1024" height="709"/>
<g>
	<path fill="#FFFFFF" d="M159.146,28.859c-0.767,0.066-1.449,0.049-2.05-0.051v8.551c0,4.899,0.083,8.649,0.25,11.25
		c0,0.199-0.067,0.383-0.2,0.549c-0.133,0.168-0.3,0.25-0.5,0.25c-0.199,0-0.383-0.066-0.55-0.199s-0.25-0.301-0.25-0.5
		c-0.167-2.732-0.242-6.375-0.225-10.926c0.017-4.549-0.009-8.191-0.075-10.924c-0.033-0.667-0.108-2.367-0.225-5.101
		c-0.117-2.733-0.176-4.833-0.176-6.3c0-0.5,0.25-0.75,0.75-0.75s0.75,0.25,0.75,0.75v1.199c0.833-0.699,1.934-1.199,3.301-1.5
		c2.766-0.532,5.166-0.216,7.199,0.951c2.033,1.166,3.267,2.75,3.7,4.75c0.467,2.1-0.083,3.899-1.649,5.399
		c-0.5,0.534-1.117,0.983-1.851,1.351c3.133,1.367,5.167,4.434,6.101,9.199c0.133,0.801,0.25,1.6,0.35,2.4
		c0.1,0.8,0.166,1.717,0.2,2.75c0.032,1.033,0.05,1.783,0.05,2.25v2.55v1.95c0,0.5-0.25,0.75-0.75,0.75s-0.75-0.25-0.75-0.75v-1.95
		v-2.55c0-0.434-0.018-1.15-0.05-2.15c-0.034-1-0.101-1.891-0.2-2.675c-0.1-0.782-0.217-1.542-0.35-2.274
		c-0.867-4.467-2.734-7.233-5.601-8.301c-0.434-0.166-0.899-0.283-1.399-0.35c-1.034,0.268-2.184,0.434-3.45,0.5
		C160.562,28.992,159.778,28.959,159.146,28.859z M164.846,26.959c1.4-0.4,2.5-0.982,3.3-1.75c1.167-1.133,1.583-2.467,1.25-4
		c-0.367-1.566-1.383-2.842-3.05-3.825s-3.7-1.226-6.1-0.726c-1.534,0.301-2.601,0.918-3.2,1.851c-0.1,0.134-0.217,0.233-0.35,0.3
		c0.032,0.801,0.091,2.033,0.175,3.7c0.083,1.667,0.142,2.899,0.175,3.7c0,0.033,0.017,0.05,0.05,0.05
		c0.533,0.567,1.25,0.934,2.15,1.101c0.267-0.033,1.032-0.117,2.3-0.25C162.912,26.908,164.013,26.859,164.846,26.959z"/>
	<path fill="#FFFFFF" d="M189.746,34.658c0.933,1.268,1.017,2.534,0.25,3.801c-0.567,0.934-1.667,1.816-3.3,2.65
		c-2.167,1.133-4.733,2.017-7.7,2.649c0.767,1.934,2.083,3.284,3.95,4.05c1.5,0.634,2.975,0.609,4.425-0.074
		s2.525-2.108,3.225-4.275c0.033-0.2,0.142-0.35,0.325-0.45c0.183-0.101,0.375-0.125,0.575-0.075c0.2,0.051,0.35,0.168,0.45,0.35
		c0.1,0.184,0.116,0.359,0.05,0.525c-0.768,2.6-2.084,4.334-3.95,5.2c-1.867,0.866-3.767,0.907-5.7,0.125s-3.408-2.175-4.425-4.175
		s-1.242-4.232-0.675-6.7c0.366-1.566,1.058-2.933,2.075-4.101c1.017-1.166,2.191-1.949,3.524-2.35
		c1.333-0.467,2.617-0.457,3.851,0.025C187.929,32.317,188.946,33.259,189.746,34.658z M188.846,36.009
		c-0.066-0.066-0.133-0.149-0.199-0.25c-0.034-0.101-0.084-0.216-0.15-0.351l-0.05-0.049c-0.067-0.066-0.101-0.133-0.101-0.201
		c-0.633-1.1-1.417-1.816-2.35-2.149c-0.934-0.333-1.834-0.333-2.7,0c-1.033,0.367-1.975,1.059-2.825,2.075
		c-0.85,1.018-1.434,2.217-1.75,3.6c-0.316,1.384-0.358,2.709-0.125,3.975c2.833-0.6,5.301-1.466,7.4-2.6
		c1.366-0.732,2.267-1.482,2.7-2.25C189.062,37.209,189.112,36.609,188.846,36.009z"/>
	<path fill="#FFFFFF" d="M209.096,36.209c-0.034,1.6-0.018,3.684,0.05,6.25c0,0.5,0.033,1.066,0.1,1.699
		c0.301,0.234,0.351,0.534,0.15,0.9l-0.05,0.15l0.05,0.5c0.133,1.566,0.217,2.733,0.25,3.5c0.066,2.866-0.4,5.183-1.4,6.949
		c-0.767,1.367-1.867,2.283-3.3,2.75c-1.434,0.467-2.899,0.508-4.399,0.125s-2.768-1.125-3.801-2.225s-1.55-2.417-1.55-3.949
		c0-0.5,0.25-0.75,0.75-0.75s0.75,0.25,0.75,0.75c0,1.133,0.4,2.125,1.2,2.975s1.808,1.433,3.025,1.75
		c1.216,0.316,2.383,0.291,3.5-0.075c1.116-0.367,1.957-1.05,2.524-2.05c0.866-1.567,1.267-3.634,1.2-6.2
		c-0.033-0.601-0.084-1.282-0.15-2.05c-1.3,1.533-2.809,2.416-4.524,2.65c-1.718,0.232-3.242-0.15-4.575-1.15
		c-1.7-1.133-2.85-2.767-3.45-4.9c-0.6-2.133-0.434-4.533,0.5-7.199c0.633-1.533,1.558-2.809,2.775-3.826
		c1.216-1.016,2.508-1.625,3.875-1.824c2.066-0.301,3.75,0.316,5.05,1.85c0.033-0.332,0.05-0.666,0.05-1
		c0-0.199,0.083-0.366,0.25-0.5c0.167-0.133,0.351-0.199,0.55-0.199c0.2,0,0.367,0.083,0.5,0.25c0.133,0.166,0.2,0.35,0.2,0.549
		c-0.067,1.135-0.1,2.367-0.1,3.701v0.1C209.162,35.876,209.162,36.043,209.096,36.209z M207.796,44.908
		c-0.101-1-0.15-1.816-0.15-2.449c-0.067-2.7-0.084-4.916-0.05-6.65c-0.434-1.3-1.075-2.225-1.925-2.775
		c-0.851-0.549-1.793-0.74-2.825-0.574c-1.101,0.133-2.159,0.625-3.175,1.475c-1.018,0.85-1.793,1.942-2.325,3.275
		c-0.634,1.5-0.9,2.934-0.8,4.3c0.1,1.367,0.433,2.55,1,3.55c0.566,1,1.3,1.801,2.199,2.4c0.833,0.566,1.7,0.883,2.601,0.949
		c0.933,0.068,1.892-0.191,2.875-0.774C206.203,47.051,207.062,46.143,207.796,44.908z"/>
	<path fill="#FFFFFF" d="M214.396,32.309c-0.167,2.367-0.25,4.184-0.25,5.45s0.05,3.142,0.15,5.625
		c0.1,2.483,0.149,4.358,0.149,5.625c0,0.5-0.25,0.75-0.75,0.75s-0.75-0.25-0.75-0.75c0-1.2-0.05-3.05-0.149-5.55
		c-0.101-2.5-0.15-4.408-0.15-5.725s0.083-3.191,0.25-5.625c0.033-0.201,0.125-0.367,0.275-0.5c0.149-0.133,0.332-0.184,0.55-0.15
		c0.216,0.033,0.392,0.125,0.524,0.275C214.378,31.884,214.429,32.076,214.396,32.309z M213.796,28.109c0.5,0,0.75,0.25,0.75,0.75
		s-0.25,0.75-0.75,0.75s-0.75-0.25-0.75-0.75S213.296,28.109,213.796,28.109z"/>
	<path fill="#FFFFFF" d="M229.295,35.609c-0.301-0.9-0.909-1.533-1.825-1.9c-0.917-0.367-1.959-0.426-3.125-0.176
		c-1.167,0.25-2.108,0.734-2.825,1.451s-1.042,1.559-0.975,2.524c0.066,0.867,0.832,1.384,2.3,1.55c0.433,0.067,1.2,0.117,2.3,0.15
		c1.033,0,1.75,0.05,2.15,0.15c1.832,0.434,3.366,1.467,4.6,3.1c0.366,0.467,0.566,1.108,0.6,1.925
		c0.033,0.817-0.05,1.442-0.25,1.875c-0.6,1.601-1.649,2.726-3.149,3.375s-3.101,0.858-4.8,0.625
		c-1.7-0.233-3.218-0.843-4.551-1.825s-2.184-2.225-2.55-3.725c-0.033-0.2,0.008-0.383,0.125-0.551
		c0.116-0.166,0.275-0.274,0.476-0.324c0.199-0.051,0.383-0.017,0.55,0.1c0.166,0.117,0.282,0.275,0.35,0.475
		c0.233,1.135,0.9,2.093,2,2.875c1.101,0.784,2.366,1.275,3.8,1.476s2.742,0.042,3.926-0.476c1.183-0.516,1.991-1.357,2.425-2.524
		c0.133-0.366,0.183-0.8,0.149-1.3s-0.133-0.867-0.3-1.1c-1-1.334-2.233-2.167-3.7-2.5c-0.333-0.101-0.949-0.15-1.85-0.15
		c-1.167-0.033-1.983-0.083-2.45-0.15c-2.3-0.266-3.517-1.25-3.649-2.949c-0.134-1.434,0.308-2.643,1.324-3.625
		c1.017-0.983,2.242-1.625,3.676-1.926c1.433-0.3,2.8-0.199,4.1,0.301s2.15,1.416,2.55,2.75c0.066,0.199,0.05,0.392-0.05,0.574
		c-0.1,0.184-0.242,0.309-0.425,0.375c-0.184,0.067-0.367,0.051-0.55-0.05C229.486,35.908,229.361,35.775,229.295,35.609z"/>
	<path fill="#FFFFFF" d="M237.444,32.259c-0.5,0-0.967,0.017-1.4,0.05c-0.233,0-0.425-0.066-0.574-0.199
		c-0.15-0.133-0.226-0.309-0.226-0.525s0.066-0.4,0.2-0.551c0.133-0.149,0.3-0.225,0.5-0.225c0.5-0.033,1-0.05,1.5-0.05
		c-0.033-2.167-0.15-4.083-0.35-5.75c-0.034-0.2,0.016-0.383,0.149-0.55c0.133-0.166,0.3-0.267,0.5-0.301
		c0.2-0.032,0.383,0.018,0.55,0.15c0.167,0.134,0.267,0.301,0.301,0.5c0.199,1.734,0.316,3.717,0.35,5.95c0.633,0,1.3,0.017,2,0.05
		c0.232,0,0.416,0.075,0.55,0.225c0.133,0.15,0.2,0.334,0.2,0.551s-0.075,0.393-0.225,0.525c-0.15,0.133-0.325,0.199-0.525,0.199
		c-0.733-0.033-1.4-0.05-2-0.05c-0.033,0.968-0.084,2.534-0.15,4.7c-0.066,2.167-0.1,3.8-0.1,4.9c0,0.199-0.009,0.434-0.025,0.699
		c-0.017,0.268-0.042,0.559-0.074,0.875c-0.034,0.317-0.051,0.575-0.051,0.775c-0.066,0.834-0.033,1.5,0.101,2
		c0.333,1.1,0.991,1.733,1.975,1.9c0.983,0.166,1.858-0.15,2.625-0.951c0.366-0.332,0.726-0.324,1.075,0.025
		s0.357,0.709,0.025,1.075c-1.168,1.133-2.5,1.566-4,1.3c-1.601-0.266-2.634-1.25-3.101-2.949c-0.2-0.633-0.267-1.467-0.2-2.5
		c0-0.066,0.025-0.393,0.075-0.976s0.075-1.008,0.075-1.274c0-1.167,0.033-2.834,0.1-5C237.36,34.692,237.411,33.158,237.444,32.259
		z"/>
	<path fill="#FFFFFF" d="M260.193,34.658c0.933,1.268,1.017,2.534,0.25,3.801c-0.567,0.934-1.667,1.816-3.3,2.65
		c-2.167,1.133-4.733,2.017-7.7,2.649c0.767,1.934,2.083,3.284,3.95,4.05c1.5,0.634,2.975,0.609,4.425-0.074
		s2.525-2.108,3.225-4.275c0.033-0.2,0.142-0.35,0.325-0.45c0.183-0.101,0.375-0.125,0.575-0.075c0.2,0.051,0.35,0.168,0.45,0.35
		c0.1,0.184,0.116,0.359,0.05,0.525c-0.768,2.6-2.084,4.334-3.95,5.2c-1.867,0.866-3.767,0.907-5.7,0.125s-3.408-2.175-4.425-4.175
		s-1.242-4.232-0.675-6.7c0.366-1.566,1.058-2.933,2.075-4.101c1.017-1.166,2.191-1.949,3.524-2.35
		c1.333-0.467,2.617-0.457,3.851,0.025C258.376,32.317,259.394,33.259,260.193,34.658z M259.293,36.009
		c-0.066-0.066-0.133-0.149-0.199-0.25c-0.034-0.101-0.084-0.216-0.15-0.351l-0.05-0.049c-0.067-0.066-0.101-0.133-0.101-0.201
		c-0.633-1.1-1.417-1.816-2.35-2.149c-0.934-0.333-1.834-0.333-2.7,0c-1.033,0.367-1.975,1.059-2.825,2.075
		c-0.85,1.018-1.434,2.217-1.75,3.6c-0.316,1.384-0.358,2.709-0.125,3.975c2.833-0.6,5.301-1.466,7.4-2.6
		c1.366-0.732,2.267-1.482,2.7-2.25C259.51,37.209,259.56,36.609,259.293,36.009z"/>
	<path fill="#FFFFFF" d="M267.093,38.009c0.033,1.367,0.017,3.274-0.05,5.726c-0.067,2.449-0.101,4.074-0.101,4.875
		c0,0.5-0.25,0.75-0.75,0.75s-0.75-0.25-0.75-0.75c0-0.9,0.042-2.559,0.125-4.976s0.092-4.458,0.025-6.125
		c-0.067-1.667-0.233-3.25-0.5-4.75c-0.033-0.233,0.008-0.433,0.125-0.601c0.116-0.166,0.283-0.266,0.5-0.299
		s0.408,0.008,0.575,0.125c0.166,0.117,0.267,0.274,0.3,0.475c0.1,0.533,0.183,1.084,0.25,1.65c1-1.334,2.267-2.066,3.8-2.201
		c1.433-0.133,2.583,0.301,3.45,1.301c0.933,1.1,1.267,2.65,1,4.65c-0.033,0.199-0.134,0.367-0.3,0.5
		c-0.167,0.133-0.351,0.184-0.55,0.149c-0.2-0.032-0.367-0.133-0.5-0.3c-0.134-0.166-0.184-0.35-0.15-0.551
		c0.2-1.566-0.018-2.716-0.65-3.449c-0.533-0.633-1.25-0.9-2.149-0.801c-0.968,0.068-1.825,0.518-2.575,1.351
		s-1.125,1.899-1.125,3.2V38.009z"/>
	<path fill="#FFFFFF" d="M190.719,79.658c-0.167,1.801-0.225,3.218-0.175,4.25c0.05,1.034,0.142,2.459,0.275,4.275
		c0.133,1.817,0.2,3.293,0.2,4.426c0,0.5-0.25,0.75-0.75,0.75s-0.75-0.25-0.75-0.75c0-0.9-0.051-2.051-0.15-3.451l-0.3-3.699
		c-0.067-1.066-0.075-2.283-0.025-3.65c0.05-1.366,0.175-2.6,0.375-3.699c0.066-0.201,0.183-0.367,0.351-0.5
		c0.666-1.133,1.883-1.883,3.649-2.25c0.967-0.233,2.033-0.226,3.2,0.024c1.166,0.25,2.083,0.742,2.75,1.476
		c1.133,1.267,1.816,3.833,2.05,7.699c0.133,2.067,0.133,4.768,0,8.1c0,0.201-0.075,0.367-0.225,0.5
		c-0.15,0.135-0.334,0.201-0.55,0.201c-0.218,0-0.393-0.076-0.525-0.226c-0.134-0.149-0.2-0.341-0.2-0.575
		c0.133-3.332,0.133-5.967,0-7.9c-0.2-3.532-0.75-5.799-1.649-6.799c-0.468-0.5-1.125-0.842-1.976-1.025
		c-0.85-0.184-1.708-0.176-2.575,0.025c-0.899,0.166-1.608,0.475-2.125,0.924c-0.517,0.451-0.774,0.943-0.774,1.476
		C190.819,79.393,190.785,79.525,190.719,79.658z"/>
	<path fill="#FFFFFF" d="M217.318,78.859c2.1,2.732,2.85,5.867,2.25,9.399c0,0.101-0.018,0.2-0.05,0.3
		c-0.8,2.6-2.117,4.35-3.95,5.25c-1.834,0.9-3.717,0.95-5.65,0.15c-1.899-0.767-3.367-2.166-4.399-4.2
		c-1.034-2.032-1.284-4.333-0.75-6.899c0.333-1.566,1.008-2.941,2.024-4.125s2.176-2.008,3.476-2.476
		c1.166-0.433,2.35-0.458,3.55-0.075c1.2,0.384,2.232,1.176,3.1,2.375C217.085,78.626,217.219,78.727,217.318,78.859z
		 M216.219,80.359c-0.668-1.301-1.484-2.158-2.45-2.576c-0.968-0.416-1.976-0.449-3.025-0.1s-1.992,1.018-2.825,2
		c-0.833,0.984-1.383,2.143-1.649,3.475c-0.5,2.234-0.317,4.201,0.55,5.9c0.866,1.7,2.083,2.884,3.65,3.551
		c1.5,0.6,2.957,0.566,4.375-0.101c1.416-0.667,2.475-2.032,3.175-4.101v-0.149c0.532-2.8,0.133-5.3-1.2-7.5
		C216.519,80.727,216.318,80.592,216.219,80.359z"/>
	<path fill="#FFFFFF" d="M224.567,77.059l-0.05,2.85c-0.033,1.768-0.033,3.301,0,4.601c0.033,1.767,0.15,3.134,0.35,4.101
		c0.167,1.199,0.4,2,0.7,2.399c0.4,0.468,0.733,0.767,1,0.899c0.3,0.168,0.683,0.234,1.15,0.201
		c0.732-0.033,1.291-0.258,1.675-0.676c0.383-0.416,0.642-0.991,0.775-1.725c0.1-0.2,0.166-0.434,0.199-0.7
		c-0.066-0.466-0.083-1.032-0.05-1.7c0.033-0.166,0.066-0.449,0.101-0.85c-0.034-0.2-0.059-0.475-0.075-0.825
		c-0.018-0.351-0.025-0.575-0.025-0.675c0-0.2,0.066-0.383,0.2-0.551c0.133-0.166,0.3-0.25,0.5-0.25c0.133,0,0.267,0.018,0.4,0.051
		c0.399,0.1,0.6,0.35,0.6,0.75c0,0.334-0.018,0.834-0.05,1.5c0.032,1,0.017,1.85-0.05,2.55c0,0.2,0.032,0.367,0.1,0.5
		c0.133,0.634,0.458,1.192,0.975,1.675c0.517,0.484,1.075,0.809,1.676,0.975c1.3,0.301,2.216-0.25,2.75-1.649
		c0.466-1.233,0.732-3.351,0.8-6.351c0.032-1.232,0.05-2.066,0.05-2.5c0-0.633-0.009-1.424-0.025-2.375
		c-0.017-0.949-0.024-1.607-0.024-1.975c0-0.533,0.258-0.8,0.774-0.8s0.775,0.267,0.775,0.8c0,0.367,0.008,1.025,0.025,1.975
		c0.016,0.951,0.024,1.742,0.024,2.375c0,0.4-0.017,1.25-0.05,2.551c-0.067,3.199-0.367,5.483-0.9,6.85
		c-0.399,1.1-1.024,1.867-1.875,2.301c-0.85,0.432-1.758,0.532-2.725,0.299c-1.268-0.299-2.283-1.016-3.05-2.149
		c-0.167,0.367-0.384,0.684-0.65,0.95c-0.667,0.733-1.583,1.133-2.75,1.199c-0.8,0.033-1.467-0.1-2-0.399
		c-0.467-0.233-0.967-0.683-1.5-1.351c-0.434-0.566-0.783-1.6-1.05-3.1c-0.167-1.033-0.268-2.449-0.3-4.25
		c-0.034-1.3-0.034-2.832,0-4.6l0.05-2.9c0-0.5,0.258-0.75,0.775-0.75C224.309,76.309,224.567,76.559,224.567,77.059z"/>
</g>
</svg>
