<?xml version="1.0" encoding="utf-8"?>
<!-- Generator: Adobe Illustrator 16.0.0, SVG Export Plug-In . SVG Version: 6.00 Build 0)  -->
<!DOCTYPE svg PUBLIC "-//W3C//DTD SVG 1.1//EN" "http://www.w3.org/Graphics/SVG/1.1/DTD/svg11.dtd">
<svg version="1.1" id="Layer_1" xmlns="http://www.w3.org/2000/svg" xmlns:xlink="http://www.w3.org/1999/xlink" x="0px" y="0px"
	 width="560px" height="560px" viewBox="0 0 560 560" enable-background="new 0 0 560 560" xml:space="preserve">
<path d="M35.183,545.063c35.067,21.313,80.067,6.813,80.067,6.813c23.5-8,42.867-21.3,49.192-24.826
	c4.821-2.688,34.091-21.597,40.071-26.219c3.986-3.08,3.549-5.518,2.736-6.955l-54.166-93.333c-3.668-1-17.334,8.333-17.334,8.333
	c-20.5,14-27.5,16-27.5,16c-13.5-27-5.5-63.5-5.5-63.5c35.333-5.166,26-38.833,26-38.833c-1.125-9.292-5.588-16.855-5.667-17
	C118.75,297.627,103,282.752,103,282.752c-22.666-18.667-23.25-42.542-23.25-42.542c-2.667-13.333,11-24.833,11-24.833
	s13.734,11.637,19.47,14.179c7.537,3.341,12.53-5.679,12.53-5.679s4.942-9.467,7.679-8.923c3.239,0.645,3.17-1.857,2.826-3.357
	c-0.362-1.582-3.104-7,1.408-4.944c2.512,1.144,2.321-2.056,2.321-2.056c0.084-5.083,3.153-7.433,3.153-7.433
	s3.234,2.412,8.083,2.839c5.654,0.498,2.83-7.489,2.83-7.489s-5.551-14.888,0.404-17.253c5.447-2.164,9.545-6.885,9.545-6.885
	l-2.271-5.59v-30.302h-37.589L49.75,163.877c0,0,5.333,21-13.334,46.333c0,0-27.666,25.667-35.666,80.667c0,0-7,40,7,93
	c0,0,12,46.999,2,83.666C9.75,467.543-4.385,521.583,35.183,545.063z"/>
<path fill="#A27994" d="M13.5,117.002l0.25-0.75c-10.667-14.042,4.332-22.374,4.332-22.374c4.168-15.501,17.666-9,17.666-9
	c11.002-9.001,16.591,1.773,16.591,1.773s6.411-14.774,24.188-22.714c24.001-10.719,43.652,6.245,43.652,6.245
	c23.071,1.694,27.888,22.958,27.888,22.958c7.017,1.07,11.316,9.329,11.316,9.329c9.7,5.741,14.367,18.408,14.367,18.408
	s6.362,16.528-0.833,36.083c-7.083,19.25-23.492,16.034-22.021,15.68c3.854-0.929,8.083-6.406,8.083-6.406
	c-9.146,8.976-35.733-1.344-25.867-1c16.055,0.56,22.634-29.504,22.634-29.504c-6.871,17.847-24.542,21.831-29.996,22.147
	c-11.816,0.687-25.5-6.833-25.5-6.833s-16.92-5.198-19.277,11.742c-1.474,10.591-5.807,15.341-5.807,15.341s-2.916,4.75-12.249,8.75
	c0,0-11.167,7-11.001,18.5c0.129,8.916-1.917-1.083-1.917-1.083s-2.248-10.583,7.085-23.583c0,0,3.333-5.667-0.667-10.667
	c0,0-17.333,8.167-17-21.5c0,0-9.333,7.833-11.334-6C28.083,142.544,4.75,140.21,13.5,117.002z"/>
<path d="M490.827,555.997c12.036-0.099,38.423-3.997,30.144-20.873c-1.239-2.526-7.789-5.479-10.338-6.786
	c-0.556-0.285-1.166-0.449-1.789-0.489c-67.072-4.222-67.082-19.217-75.183-24.018c-13.519-8.011-37.513-29.831-39.826-31.945
	c-0.123-0.111-0.235-0.227-0.345-0.352c-42.27-47.997-72.694-98.135-73.48-102.461c-0.906-4.982-20.752-26.068-26.277-31.859
	c-0.9-0.942-2.156-1.449-3.459-1.398l-22.476,0.848c-0.77,0.029-1.521,0.254-2.182,0.653l-131.235,79.333
	c-1.221,0.738-2.023,2.001-2.171,3.421c-1.87,18.084-12.248,137.497,45.552,89.161c46.104-38.557,84.571-73.596,96.84-90.348
	c2.215-3.022,3.539-2.138,5.398,1.116c21.334,37.333,28.618,45.287,64,65c35,19.5,40.111,25.724,44.25,34
	c2.084,4.167,1.542,6.966,0.752,10.334c-5.002,21.333,8.333,26.333,31.498,22.416c15.554-2.63,31.667-1.735,39.25-0.25
	C459.75,551.5,476.605,556.114,490.827,555.997"/>
<path d="M131.751,419.669l7.536,53.276l27.72,20.443c0,0,101.379-68.404,109.082-109.307
	c7.702-40.904,162.922,140.249,162.922,140.249l41.214,25.327l35.314-11.75c3.558-0.982,6.648-3.333,8.298-6.635
	c2.272-4.549,1.457-13.746-13.679-14.885c-49.491-3.722-77.491-25.056-77.491-25.056c-14-9.335-21.001-20.998-31.667-35.665
	c-7.879-10.834-74.107-96.177-84.075-113.511c-11.591-20.157-21.978-16.129-28.567-17.404c-3.906-0.757-8.002-0.376-10.64,0
	l-9.345,1.869c-2.688,0.849-10.133,1.206-13.635,6.098c-0.113,0.158-0.252,0.295-0.414,0.401L197.8,371.9"/>
<path fill="#A6A6A6" d="M377.122,322.165l2.95-3.325c0.369-1.293,0.928-3.088,1.029-4.356l1.33-11.24
	c-0.025-0.2-0.029-0.403-0.012-0.604l9.488-131.447c0.191-2.164-2.047-3.714-4.006-2.774l-5.32,5.543
	c-1.416,0.833-1.745,2.328-1.848,3.295l-14.146,130.051c-0.143,1.349-1.23,2.402-2.585,2.502l-131.808,14.464
	c-1.549,0.112-2.709,1.462-2.592,3.01l0.578,2.604c0.117,1.539,1.459,2.695,3,2.583l140.32-8.56
	C373.869,323.803,377.122,322.165,377.122,322.165z"/>
<path d="M17.273,251.195c-2.849,5.731,0.622,23.827,4.66,32.404c4.037,8.578,48.048,70.816,64.857,85.34
	c16.81,14.524,26.501,13.871,29.959,13.604c4.333-0.334,11.667-5,11.667-5c23.333-14.334,32.825-32.337,37.767-36.61
	c3.146-2.722,39.566-55.356,42.816-54.057c8.75,3.5,15.344,2.454,27.25-5.25c8.5-5.5,18.437-7.303,22.834-5.084
	c20.033,10.109,22.666,6.666,22.666,6.666s-9.264-6.018-16.004-10.384c-8.938-5.792,17.676,4.656,20.337,5.719
	c5.833,2.333,9.167,1.333,9.167,1.333l-10.166-7.334c0,0,10.496,4.171,13.833,3c3.336-1.171-0.496-3.447-0.496-3.447l-12.198-6.9
	c-29.637-19.836-75.536-5.48-87.775,2.199c-1.596,1.001-5.368,3.146-6.697,4.481c-42.186,42.416-82.5,64.5-82.5,64.5
	c-8.591-35.37-54.463-100.334-54.463-100.334S28.797,228.014,17.273,251.195z"/>
<path d="M65.133,232.562c0,0,49.064,80.875,54.576,116.833c0,0,46.718-9.677,93.088-50.026c0,0,43.285-17.658,90.43,4.007
	l9.992,4.192c0,0,3.622,2.582,0.197,3.477c-3.424,0.896-13-1.501-13-1.501l8.5,6.333c0,0-1.166,1.5-7.833-0.5
	c-2.741-0.822-27.684-12.061-18.911-6.064c7.411,5.064,16.411,10.898,16.411,10.898s-7.29,3.005-24.833-7.834
	c-4.18-2.582-15.167,0-22.334,5.5c-3.532,2.711-14.166,8.75-26.416,3.5c-3.213-1.377-44.38,43.212-47.75,45.669
	c-5.291,3.857-22.167,19.333-46.168,28.166c0,0-5.332,2.5-11.309,4.406c-3.311,1.057-11.691,4.76-24.146-9.069
	c-14.83-16.468-62.559-98.232-65.844-107.111c-3.283-8.88-5.73-27.573-1.85-32.682C31.814,245.649,39.018,222.849,65.133,232.562"/>
<g>
	<g>
		<defs>
			
				<rect id="SVGID_1_" x="29.417" y="208.988" transform="matrix(0.9887 0.1499 -0.1499 0.9887 34.3614 -6.4016)" width="60.434" height="31.367"/>
		</defs>
		<clipPath id="SVGID_2_">
			<use xlink:href="#SVGID_1_"  overflow="visible"/>
		</clipPath>
		<path clip-path="url(#SVGID_2_)" fill="#FFE7CB" d="M55.316,226.921c2.561-2.95,2.118-7.433-0.985-10.016
			c-3.105-2.583-7.699-2.285-10.26,0.664c-2.561,2.951-2.119,7.435,0.985,10.018C48.164,230.168,52.756,229.871,55.316,226.921"/>
		<path clip-path="url(#SVGID_2_)" fill="#FFECC7" d="M54.021,225.843c1.969-2.268,1.631-5.72-0.761-7.707
			c-2.389-1.988-5.924-1.759-7.894,0.512c-1.97,2.268-1.631,5.72,0.759,7.707C48.516,228.344,52.05,228.114,54.021,225.843"/>
		<path clip-path="url(#SVGID_2_)" fill="#FFF7EA" d="M47.074,222.412c-1.152,1.327-0.954,3.343,0.442,4.505
			c1.396,1.162,3.462,1.028,4.613-0.299s0.953-3.344-0.443-4.505C50.29,220.952,48.225,221.085,47.074,222.412"/>
		<path clip-path="url(#SVGID_2_)" fill="#FFE7CB" d="M67.765,234.748c2.562-2.95,2.118-7.433-0.985-10.015
			c-3.105-2.583-7.698-2.285-10.258,0.663c-2.56,2.951-2.12,7.436,0.985,10.018C60.612,237.997,65.205,237.698,67.765,234.748"/>
		<path clip-path="url(#SVGID_2_)" fill="#FFECC7" d="M66.47,233.671c1.97-2.27,1.63-5.721-0.76-7.709
			c-2.389-1.988-5.923-1.758-7.893,0.511c-1.973,2.27-1.631,5.722,0.758,7.709C60.966,236.17,64.499,235.94,66.47,233.671"/>
		<path clip-path="url(#SVGID_2_)" fill="#FFF7EA" d="M59.521,230.239c-1.152,1.327-0.952,3.343,0.443,4.505
			c1.397,1.161,3.463,1.027,4.614-0.299c1.151-1.327,0.951-3.343-0.443-4.505C62.738,228.778,60.675,228.912,59.521,230.239"/>
		<path clip-path="url(#SVGID_2_)" fill="#FFE7CB" d="M81.402,239.592c2.93-2.603,3.068-7.089,0.311-10.021
			c-2.762-2.932-7.372-3.199-10.303-0.597c-2.93,2.602-3.066,7.088-0.309,10.02C73.861,241.927,78.475,242.193,81.402,239.592"/>
		<path clip-path="url(#SVGID_2_)" fill="#FFECC7" d="M80.252,238.368c2.255-2.003,2.36-5.456,0.237-7.711
			c-2.124-2.256-5.673-2.462-7.927-0.46c-2.255,2.003-2.361,5.456-0.237,7.712S77.996,240.371,80.252,238.368"/>
		<path clip-path="url(#SVGID_2_)" fill="#FFF7EA" d="M73.775,234.127c-1.316,1.169-1.38,3.188-0.139,4.507
			c1.241,1.317,3.314,1.439,4.633,0.269c1.316-1.171,1.379-3.188,0.138-4.507S75.092,232.957,73.775,234.127"/>
		<path clip-path="url(#SVGID_2_)" fill="#FFE7CB" d="M44.708,217.521c2.561-2.948,2.118-7.433-0.986-10.015
			c-3.105-2.583-7.698-2.286-10.259,0.663c-2.561,2.95-2.119,7.435,0.986,10.017C37.555,220.769,42.149,220.472,44.708,217.521"/>
		<path clip-path="url(#SVGID_2_)" fill="#FFECC7" d="M43.413,216.443c1.97-2.269,1.63-5.72-0.76-7.708
			c-2.39-1.986-5.924-1.758-7.894,0.512c-1.973,2.269-1.632,5.721,0.758,7.708C37.907,218.944,41.443,218.714,43.413,216.443"/>
		<path clip-path="url(#SVGID_2_)" fill="#FFF7EA" d="M36.465,213.012c-1.151,1.327-0.954,3.344,0.443,4.505
			c1.396,1.161,3.463,1.028,4.612-0.299c1.152-1.327,0.953-3.343-0.44-4.505C39.683,211.552,37.617,211.686,36.465,213.012"/>
	</g>
</g>
</svg>
