<?xml version="1.0" encoding="utf-8"?>
<!-- Generator: Adobe Illustrator 16.0.0, SVG Export Plug-In . SVG Version: 6.00 Build 0)  -->
<!DOCTYPE svg PUBLIC "-//W3C//DTD SVG 1.1//EN" "http://www.w3.org/Graphics/SVG/1.1/DTD/svg11.dtd">
<svg version="1.1" id="Layer_1" xmlns="http://www.w3.org/2000/svg" xmlns:xlink="http://www.w3.org/1999/xlink" x="0px" y="0px"
	 width="430px" height="150px" viewBox="0 0 430 150" enable-background="new 0 0 430 150" xml:space="preserve">
<g>
	<path fill="#A27994" d="M225.15,126.753c-6.493,4.028-17.096,3.993-23.562-0.079L4.256,2.403C-2.21-1.668-1.248-5.012,6.393-5.027
		l194.111-0.375c7.641-0.016,20.145-0.016,27.786-0.001l195.317,0.377c7.641,0.015,8.58,3.322,2.087,7.351L225.15,126.753z"/>
</g>
<rect x="-295" y="-140" fill="none" width="1024" height="709"/>
<g>
	<path fill="#FFFFFF" d="M178.514,19.117c-0.035-1.273-0.049-2.439-0.048-3.495c0-0.546,0.272-0.818,0.82-0.817
		c0.547,0,0.819,0.275,0.818,0.82l-0.002,1.312c1.277-1.236,2.735-1.963,4.374-2.18c2.041-0.25,4.06,0.336,6.062,1.76
		c1.891,1.314,3.308,3.11,4.25,5.388c0.944,2.278,1.066,4.546,0.371,6.804c-0.475,1.637-1.444,2.992-2.902,4.064
		c-1.458,1.072-3.063,1.734-4.811,1.985c-2.878,0.396-5.171-0.319-6.879-2.144c0.031,2.368,0.038,4.507,0.017,6.42
		c-0.022,1.912-0.016,4.041,0.015,6.392c0.032,2.349,0.103,4.489,0.208,6.419c0,0.219-0.074,0.42-0.219,0.601
		c-0.146,0.183-0.327,0.272-0.546,0.272c-0.218,0-0.417-0.072-0.601-0.22c-0.183-0.146-0.272-0.329-0.274-0.546
		c-0.176-2.986-0.251-6.967-0.225-11.938c0.029-4.972,0.007-8.951-0.06-11.936c-0.036-1.02-0.096-2.504-0.183-4.453
		c-0.088-1.948-0.149-3.359-0.184-4.233V19.117z M180.571,29.447l0.11,0.219c0.471,1.349,1.306,2.316,2.508,2.899
		c1.2,0.587,2.547,0.77,4.04,0.554c1.495-0.179,2.833-0.713,4.018-1.604c1.186-0.891,1.98-1.973,2.383-3.246
		c0.55-1.895,0.416-3.814-0.4-5.766c-0.815-1.949-2.042-3.508-3.679-4.678c-1.637-1.168-3.276-1.644-4.913-1.428
		c-1.751,0.215-3.246,1.231-4.486,3.051c0.033,0.838,0.096,2.223,0.183,4.152c0.089,1.932,0.149,3.424,0.185,4.479
		C180.519,28.519,180.535,28.975,180.571,29.447z"/>
	<path fill="#FFFFFF" d="M209.131,34.888c1.02,1.386,1.107,2.771,0.268,4.152c-0.621,1.019-1.824,1.981-3.61,2.888
		c-2.37,1.234-5.175,2.195-8.419,2.881c0.835,2.115,2.27,3.592,4.309,4.432c1.639,0.695,3.25,0.672,4.836-0.072
		c1.585-0.744,2.762-2.297,3.531-4.665c0.037-0.218,0.154-0.381,0.356-0.491c0.198-0.109,0.409-0.135,0.628-0.08
		s0.381,0.184,0.49,0.383c0.109,0.201,0.127,0.393,0.055,0.573c-0.844,2.841-2.286,4.731-4.327,5.677
		c-2.042,0.941-4.118,0.982-6.226,0.123c-2.113-0.857-3.722-2.383-4.83-4.569c-1.104-2.187-1.348-4.628-0.724-7.321
		c0.403-1.71,1.162-3.203,2.275-4.477c1.114-1.272,2.397-2.125,3.857-2.561c1.455-0.508,2.858-0.496,4.205,0.035
		C207.15,32.324,208.262,33.355,209.131,34.888z M208.146,36.359c-0.072-0.072-0.145-0.163-0.217-0.271
		c-0.037-0.111-0.091-0.237-0.166-0.383l-0.053-0.057c-0.074-0.071-0.108-0.145-0.109-0.218c-0.691-1.203-1.544-1.987-2.562-2.354
		c-1.018-0.365-2.004-0.365-2.949-0.003c-1.131,0.399-2.162,1.152-3.09,2.261c-0.933,1.109-1.573,2.418-1.922,3.93
		c-0.347,1.512-0.395,2.957-0.143,4.344c3.098-0.65,5.793-1.594,8.09-2.828c1.494-0.796,2.479-1.615,2.954-2.453
		C208.381,37.672,208.436,37.016,208.146,36.359z"/>
	<path fill="#FFFFFF" d="M217.002,33.699c3.5-1.56,6.248-2.029,8.252-1.406c1.818,0.586,3,2.045,3.541,4.378
		c0.471,2.003,0.482,5.226,0.039,9.667c0.184,0.258,0.217,0.529,0.107,0.819l-0.221,0.438c-0.146,1.274-0.238,2.222-0.277,2.841
		c0,0.218-0.09,0.4-0.275,0.545c-0.18,0.146-0.381,0.219-0.6,0.217c-0.219,0.002-0.4-0.09-0.545-0.272
		c-0.146-0.183-0.217-0.385-0.217-0.602c0-0.219,0.018-0.438,0.057-0.655c-1.061,0.764-2.297,1.279-3.719,1.551
		c-1.42,0.27-2.789,0.276-4.098,0.02c-2.109-0.331-3.658-1.17-4.64-2.521c-1.2-1.531-1.341-3.406-0.426-5.626
		c0.622-1.456,1.671-2.638,3.146-3.546c1.479-0.906,3.072-1.471,4.783-1.686c1.711-0.216,3.188-0.049,4.426,0.498
		c0.436,0.184,0.82,0.421,1.145,0.713c-0.035-0.764-0.123-1.438-0.268-2.021c-0.398-1.713-1.215-2.77-2.453-3.173
		c-1.604-0.513-3.971-0.061-7.105,1.354c-0.51,0.217-0.875,0.071-1.091-0.438C216.344,34.281,216.49,33.916,217.002,33.699z
		 M227.26,41.747c-0.107-0.874-0.637-1.513-1.58-1.915c-0.984-0.402-2.188-0.514-3.609-0.334c-1.457,0.18-2.795,0.651-4.016,1.413
		c-1.223,0.764-2.07,1.709-2.545,2.837c-0.658,1.602-0.59,2.932,0.213,3.988c0.725,0.984,1.925,1.625,3.6,1.918
		c1.527,0.258,3.039,0.152,4.535-0.318c1.494-0.471,2.57-1.217,3.227-2.236c0.223-2.219,0.371-3.84,0.447-4.859
		C227.383,42.094,227.293,41.93,227.26,41.747z"/>
	<path fill="#FFFFFF" d="M233.926,38.59c0.037,1.494,0.014,3.578-0.064,6.256c-0.078,2.676-0.115,4.451-0.119,5.326
		c0,0.546-0.273,0.818-0.818,0.817c-0.549-0.001-0.82-0.274-0.82-0.82c0.004-0.985,0.053-2.796,0.148-5.437
		c0.094-2.639,0.105-4.869,0.039-6.691c-0.072-1.822-0.25-3.552-0.539-5.191c-0.037-0.254,0.01-0.472,0.139-0.654
		c0.129-0.182,0.309-0.292,0.549-0.328c0.234-0.035,0.441,0.012,0.625,0.139c0.182,0.127,0.291,0.3,0.326,0.519
		c0.109,0.584,0.197,1.185,0.271,1.804c1.096-1.453,2.48-2.254,4.156-2.396c1.564-0.143,2.818,0.332,3.766,1.428
		c1.018,1.203,1.379,2.896,1.084,5.082c-0.035,0.219-0.145,0.401-0.33,0.546c-0.18,0.146-0.381,0.2-0.598,0.161
		c-0.221-0.035-0.404-0.145-0.547-0.326c-0.146-0.183-0.199-0.385-0.164-0.603c0.221-1.71-0.014-2.968-0.703-3.771
		c-0.582-0.693-1.363-0.984-2.348-0.877c-1.059,0.069-1.996,0.561-2.814,1.469c-0.822,0.91-1.234,2.076-1.236,3.494L233.926,38.59z"
		/>
	<path fill="#FFFFFF" d="M246.686,20.92c-0.111,1.174-0.168,2.032-0.168,2.576c-0.002,0.543,0.033,1.426,0.105,2.637
		c0.07,1.218,0.105,2.161,0.104,2.828l-0.037,21.11c0,0.628-0.273,0.942-0.822,0.941c-0.545-0.003-0.816-0.315-0.816-0.944
		l0.035-21.111c0.002-0.5-0.033-1.382-0.104-2.638s-0.105-2.199-0.104-2.825c0.002-0.628,0.057-1.571,0.168-2.828
		c0.037-0.251,0.145-0.461,0.33-0.626c0.182-0.168,0.383-0.229,0.6-0.188c0.219,0.043,0.402,0.167,0.547,0.376
		C246.666,20.439,246.721,20.668,246.686,20.92z"/>
</g>
<g>
	<path fill="#FFFFFF" d="M173.481,71.189c1.658,0.018,4.17-0.045,7.526-0.189c3.357-0.18,5.886-0.26,7.58-0.244
		c0.012-1.064,0.003-2.076-0.021-3.031c-0.03-0.711-0.091-2.519-0.186-5.428c-0.097-2.908-0.133-5.143-0.12-6.704
		c0.007-0.531,0.273-0.794,0.804-0.788c0.529,0.006,0.792,0.272,0.787,0.804c-0.016,1.562,0.022,3.787,0.119,6.679
		c0.095,2.891,0.155,4.707,0.186,5.453c0.051,1.953,0.037,5.809-0.036,11.567c-0.074,5.765-0.035,9.621,0.121,11.573
		c-0.001,0.213-0.074,0.405-0.217,0.583c-0.144,0.175-0.319,0.26-0.532,0.258c-0.211-0.002-0.406-0.073-0.58-0.218
		c-0.177-0.141-0.262-0.32-0.26-0.534c-0.088-1.845-0.14-3.753-0.154-5.718c-0.017-1.971-0.003-4.354,0.044-7.155
		c0.044-2.802,0.055-4.716,0.031-5.745c-1.661-0.016-4.152,0.049-7.477,0.191c-3.994,0.174-6.537,0.255-7.633,0.244h-0.104
		c0.023,0.993,0.02,2.454-0.018,4.385c-0.038,1.936-0.062,3.494-0.074,4.684c-0.012,1.188,0,2.613,0.036,4.281
		c0.037,1.668,0.083,3.191,0.14,4.576c0,0.215-0.073,0.406-0.216,0.582c-0.144,0.174-0.319,0.264-0.534,0.262
		c-0.211-0.004-0.405-0.076-0.58-0.22c-0.175-0.142-0.263-0.321-0.261-0.535c-0.147-2.909-0.187-6.783-0.122-11.622
		c0.065-4.84,0.077-8.714,0.035-11.623c-0.028-0.708-0.09-2.518-0.184-5.427c-0.095-2.909-0.132-5.142-0.117-6.703
		c0.004-0.532,0.272-0.794,0.801-0.79c0.53,0.005,0.792,0.273,0.786,0.806c-0.015,1.562,0.024,3.788,0.119,6.677
		c0.096,2.892,0.154,4.709,0.185,5.453c0.023,1.1,0.03,2.307,0.017,3.617H173.481z"/>
	<path fill="#FFFFFF" d="M196.008,73.111c3.511-1.531,6.268-1.977,8.262-1.337c1.816,0.599,2.986,2.07,3.508,4.405
		c0.455,2.006,0.44,5.232-0.041,9.67c0.18,0.255,0.215,0.529,0.102,0.821l-0.223,0.434c-0.162,1.273-0.26,2.22-0.303,2.838
		c-0.001,0.22-0.094,0.4-0.279,0.542c-0.182,0.145-0.383,0.215-0.602,0.213c-0.219,0-0.4-0.095-0.542-0.277
		c-0.146-0.184-0.218-0.387-0.216-0.604c0.004-0.217,0.023-0.436,0.062-0.656c-1.063,0.754-2.309,1.263-3.729,1.52
		c-1.423,0.26-2.788,0.255-4.097-0.012c-2.11-0.348-3.65-1.201-4.619-2.558c-1.187-1.542-1.313-3.42-0.383-5.632
		c0.635-1.449,1.695-2.623,3.178-3.521c1.482-0.896,3.082-1.444,4.797-1.646c1.713-0.201,3.188-0.024,4.419,0.536
		c0.437,0.188,0.815,0.427,1.142,0.72c-0.029-0.764-0.113-1.439-0.254-2.021c-0.383-1.716-1.193-2.78-2.426-3.195
		c-1.598-0.523-3.971-0.094-7.116,1.295c-0.513,0.215-0.873,0.064-1.087-0.447C195.348,73.689,195.495,73.326,196.008,73.111z
		 M206.199,81.244c-0.103-0.873-0.625-1.518-1.566-1.928c-0.98-0.41-2.181-0.531-3.604-0.363c-1.459,0.169-2.801,0.629-4.029,1.381
		c-1.228,0.753-2.082,1.691-2.567,2.814c-0.671,1.598-0.612,2.928,0.18,3.991c0.717,0.989,1.915,1.64,3.586,1.947
		c1.526,0.271,3.039,0.176,4.537-0.282c1.497-0.457,2.581-1.195,3.245-2.209c0.241-2.22,0.402-3.838,0.484-4.857
		C206.322,81.592,206.23,81.427,206.199,81.244z"/>
	<path fill="#FFFFFF" d="M222.9,75.953c-0.642-1.428-1.498-2.364-2.567-2.814c-1.07-0.448-2.19-0.477-3.358-0.088
		c-1.172,0.391-2.225,1.117-3.164,2.184c-0.939,1.064-1.525,2.307-1.756,3.724c-0.541,2.909-0.329,5.37,0.635,7.384
		c0.82,1.754,2.431,2.826,4.83,3.214c2.365,0.39,4.263-0.048,5.693-1.307c0.187-0.181,0.353-0.362,0.5-0.541
		c0.146-0.183,0.275-0.419,0.39-0.708l0.279-0.652c0.036-0.145,0.131-0.456,0.282-0.93l0.281-0.812
		c0.041-0.219,0.158-0.381,0.359-0.49c0.201-0.104,0.411-0.133,0.63-0.073c0.218,0.056,0.381,0.186,0.487,0.387
		c0.106,0.2,0.122,0.413,0.05,0.627c-0.004,0.11-0.078,0.394-0.228,0.847c-0.15,0.453-0.265,0.778-0.338,0.98
		c-0.075,0.198-0.188,0.479-0.336,0.843c-0.148,0.362-0.334,0.688-0.558,0.977c-0.222,0.29-0.459,0.543-0.718,0.758
		c-0.881,0.79-1.952,1.327-3.213,1.606c-1.258,0.279-2.542,0.321-3.854,0.125c-1.309-0.23-2.504-0.699-3.59-1.402
		c-1.084-0.699-1.913-1.639-2.484-2.809c-1.069-2.305-1.315-5.094-0.739-8.366c0.31-1.672,1.024-3.158,2.149-4.458
		c1.125-1.301,2.417-2.197,3.879-2.693c1.57-0.494,3.081-0.436,4.533,0.181c1.449,0.614,2.604,1.839,3.46,3.667
		c0.214,0.477,0.073,0.83-0.422,1.062C223.522,76.605,223.15,76.465,222.9,75.953z"/>
	<path fill="#FFFFFF" d="M230.457,61.717c-0.289,3.603-0.407,8.229-0.356,13.878c-0.005,0.522,0.007,1.081,0.039,1.683
		c0.477-0.395,1.064-0.711,1.757-0.943c0.478-0.275,0.99-0.611,1.542-1.006c0.953-0.632,1.789-1.494,2.51-2.59
		c0.722-1.096,1.085-2.123,1.098-3.084c0.007-0.6,0.282-0.897,0.826-0.892c0.547,0.005,0.818,0.308,0.812,0.908
		c-0.022,2.164-1.101,4.255-3.232,6.277c1.821,0.099,3.197,0.733,4.133,1.903c0.719,0.969,1.287,2.619,1.698,4.946
		c0,0.121,0.06,0.501,0.181,1.143c0.121,0.644,0.189,1.034,0.209,1.175c0.013,0.139,0.075,0.532,0.178,1.172
		c0.104,0.646,0.145,1.036,0.125,1.175c-0.021,0.14-0.005,0.55,0.042,1.233c0.049,0.682,0.034,1.102-0.04,1.262
		c-0.002,0.238-0.098,0.438-0.278,0.597c-0.184,0.158-0.384,0.235-0.603,0.231c-0.22,0-0.398-0.102-0.546-0.304
		c-0.143-0.202-0.212-0.423-0.21-0.662c0.086-1.24-0.148-3.468-0.699-6.679c-0.344-2.047-0.786-3.412-1.324-4.1
		c-0.685-0.887-1.845-1.318-3.483-1.296c-0.948,0.031-1.733,0.124-2.353,0.275l-0.878,0.475c-0.002,0.038-0.202,0.179-0.605,0.413
		l-0.33,0.179c-0.074,0.038-0.128,0.077-0.166,0.118l-0.327-0.003c0.062,4.89,0.082,8.354,0.062,10.396
		c-0.007,0.604-0.282,0.898-0.829,0.893s-0.814-0.307-0.811-0.908c0.004-0.402-0.042-5.047-0.134-13.945
		c-0.054-5.686,0.066-10.373,0.357-14.057c0.038-0.239,0.142-0.439,0.308-0.599c0.164-0.157,0.357-0.226,0.573-0.204
		c0.222,0.023,0.4,0.124,0.545,0.307C230.389,61.266,230.461,61.477,230.457,61.717z"/>
	<path fill="#FFFFFF" d="M257.221,74.814c-0.319-0.988-0.979-1.688-1.974-2.096c-0.998-0.41-2.138-0.486-3.413-0.227
		c-1.278,0.261-2.311,0.779-3.101,1.555c-0.793,0.775-1.156,1.691-1.094,2.748c0.062,0.946,0.896,1.521,2.497,1.719
		c0.472,0.076,1.308,0.139,2.511,0.188c1.128,0.01,1.907,0.073,2.347,0.187c1.998,0.495,3.661,1.639,4.99,3.438
		c0.396,0.515,0.608,1.217,0.634,2.109c0.027,0.893-0.069,1.578-0.291,2.047c-0.671,1.742-1.832,2.959-3.479,3.65
		c-1.647,0.695-3.397,0.906-5.252,0.633c-1.853-0.274-3.505-0.957-4.948-2.043c-1.448-1.09-2.364-2.455-2.746-4.1
		c-0.035-0.219,0.012-0.416,0.143-0.6c0.129-0.18,0.303-0.297,0.521-0.347c0.217-0.055,0.417-0.016,0.6,0.112
		c0.181,0.13,0.306,0.305,0.375,0.525c0.245,1.236,0.963,2.293,2.156,3.16c1.195,0.869,2.57,1.421,4.135,1.654
		c1.563,0.234,2.995,0.078,4.293-0.477c1.298-0.553,2.192-1.461,2.676-2.734c0.152-0.398,0.212-0.87,0.177-1.416
		c-0.029-0.549-0.131-0.949-0.311-1.205c-1.078-1.468-2.42-2.393-4.014-2.771c-0.365-0.115-1.038-0.176-2.024-0.184
		c-1.272-0.05-2.166-0.115-2.673-0.192c-2.51-0.315-3.829-1.401-3.957-3.262c-0.13-1.567,0.363-2.884,1.486-3.946
		c1.124-1.062,2.468-1.752,4.036-2.064c1.569-0.311,3.063-0.188,4.478,0.373c1.415,0.562,2.334,1.57,2.756,3.033
		c0.071,0.217,0.049,0.428-0.062,0.627c-0.108,0.199-0.265,0.336-0.467,0.405c-0.201,0.07-0.4,0.052-0.601-0.061
		S257.291,74.996,257.221,74.814z"/>
</g>
</svg>
